<?xml version="1.0" encoding="utf-8"?>
<!-- Generator: Adobe Illustrator 26.5.0, SVG Export Plug-In . SVG Version: 6.00 Build 0)  -->
<svg version="1.1" id="Layer_1" xmlns="http://www.w3.org/2000/svg" xmlns:xlink="http://www.w3.org/1999/xlink" x="0px" y="0px"
	 viewBox="0 0 128 128" style="enable-background:new 0 0 128 128;" xml:space="preserve">
<style type="text/css">
	.st0{fill:#48AF2C;}
	.st1{fill:#FFFFFF;}
</style>
<path class="st0" d="M64,12.5c18.1,0,36.3,0,54.4,0c5.9,0,8.9,3,8.9,8.9c0,20.3,0,40.5,0,60.8c0,5.8-3,8.8-8.8,8.8
	c-20.8,0-41.6,0-62.4,0c-1.7,0-3,0.5-4.2,1.7c-7,7.2-14.1,14.3-21.2,21.4c-0.7,0.7-1.3,1.8-2.5,1.3c-1.3-0.5-1-1.7-0.9-2.8
	c0.3-6.6,0.6-13.1,1-19.7c0.1-1.5-0.3-2-1.8-2C20.8,91.1,15,91,9.2,91c-5.5,0-8.6-3.1-8.6-8.6c0-20.4,0-40.8,0-61.2
	c0-5.6,3.1-8.7,8.7-8.7C27.6,12.5,45.8,12.5,64,12.5z"/>
<g>
	<g>
		<path class="st1" d="M21.3,45.3c-1.5,0-2.8-0.3-3.9-0.8s-1.8-1.2-2.3-2c-0.5-0.8-0.8-1.7-0.8-2.6V28.9c0-0.2,0-0.3-0.1-0.4
			c-0.1-0.1-0.2-0.2-0.4-0.2l-1.9-0.6v-0.9h7.5v0.9l-1.9,0.6c-0.1,0-0.2,0.1-0.3,0.2C17,28.6,17,28.8,17,28.9v9.8
			c0,0.5,0.1,1,0.2,1.5s0.3,1.1,0.7,1.6s0.8,0.9,1.4,1.2c0.6,0.3,1.4,0.5,2.4,0.5s1.8-0.2,2.4-0.5c0.6-0.3,1.1-0.7,1.5-1.2
			c0.4-0.5,0.6-1,0.8-1.6c0.1-0.5,0.2-1,0.2-1.5V29c0-0.2,0-0.3-0.1-0.4c-0.1-0.1-0.2-0.1-0.3-0.2l-1.9-0.7v-0.9h6.5v0.9l-1.9,0.7
			c-0.1,0.1-0.2,0.1-0.3,0.2c-0.1,0.1-0.1,0.2-0.1,0.4v10.4c0,1.1-0.2,2-0.7,2.7c-0.5,0.8-1,1.4-1.8,1.8c-0.7,0.5-1.5,0.8-2.3,1
			C22.7,45.2,22,45.3,21.3,45.3z"/>
		<path class="st1" d="M32.7,51.1v-0.9l1.6-0.5c0.2-0.1,0.3-0.1,0.4-0.2c0.1-0.1,0.1-0.2,0.1-0.4V33.9c0-0.2-0.1-0.3-0.2-0.4
			c-0.1-0.1-0.2-0.2-0.4-0.2l-1.5-0.6v-0.9l4.3-0.7v2.3h0.2c0.4-0.6,0.8-1.1,1.3-1.4c0.5-0.3,1-0.6,1.5-0.7c0.5-0.1,1.1-0.2,1.6-0.2
			c1.1,0,2.1,0.3,2.9,0.9c0.8,0.6,1.4,1.4,1.9,2.3s0.7,2.1,0.7,3.4c0,1.4-0.3,2.7-0.8,3.8s-1.3,2.1-2.2,2.7c-1,0.7-2.1,1-3.5,1
			c-0.8,0-1.5-0.1-2-0.4c-0.6-0.3-1-0.6-1.3-0.9v0.6v4.8c0,0.2,0.1,0.3,0.2,0.4c0.1,0.1,0.2,0.2,0.4,0.2l2,0.5v0.9H32.7z M37.3,34.2
			v8.5c0.3,0.2,0.6,0.3,1,0.4c0.4,0.1,0.8,0.2,1.1,0.2s0.7,0.1,0.9,0.1c0.9,0,1.7-0.2,2.3-0.7c0.6-0.5,1.1-1.1,1.4-1.8
			s0.4-1.6,0.4-2.5c0-1.1-0.1-2-0.4-2.8c-0.3-0.8-0.7-1.5-1.3-2c-0.6-0.5-1.4-0.7-2.4-0.7c-0.6,0-1.2,0.1-1.7,0.4
			C38.1,33.4,37.7,33.8,37.3,34.2z"/>
		<path class="st1" d="M54.9,45l-4.3-11.8c-0.1-0.2-0.1-0.3-0.3-0.4c-0.1-0.1-0.3-0.2-0.4-0.2l-1-0.5v-0.9h6v0.9L53,32.8l2.6,7.1
			l0.5,2h0.2l2.6-7.7l1.2-2.9h1.5l3.2,8.6l0.6,2.1h0.2l2.9-8.7l-1.8-1v-0.9h5.1v0.9l-1.1,0.8c-0.1,0.1-0.3,0.2-0.4,0.3
			c-0.1,0.1-0.2,0.2-0.3,0.4l-3,8.6L65.8,45h-1.5L61,36.3l-0.4-1.7h-0.2l-2.6,7.6L56.5,45H54.9z"/>
		<path class="st1" d="M80.2,45.2c-1.3,0-2.5-0.3-3.5-0.9S75,43,74.4,41.9c-0.5-1.1-0.8-2.3-0.8-3.8c0-1.4,0.3-2.6,0.8-3.7
			s1.3-1.9,2.3-2.6c1-0.6,2.2-0.9,3.6-0.9c1.5,0,2.7,0.3,3.7,1c1,0.7,1.7,1.5,2.2,2.6c0.5,1.1,0.7,2.3,0.7,3.5
			c0,1.3-0.3,2.5-0.8,3.6c-0.5,1.1-1.3,1.9-2.3,2.6C82.7,44.9,81.5,45.2,80.2,45.2z M80.3,43.8c0.7,0,1.3-0.2,1.8-0.5
			c0.5-0.3,0.9-0.8,1.1-1.3c0.3-0.5,0.5-1.1,0.6-1.8s0.2-1.3,0.2-1.9c0-1-0.1-2-0.4-2.9c-0.3-0.9-0.7-1.7-1.3-2.3
			c-0.6-0.6-1.4-0.9-2.3-0.9c-0.7,0-1.3,0.2-1.8,0.5s-0.9,0.8-1.1,1.3c-0.3,0.5-0.5,1.1-0.6,1.8c-0.1,0.6-0.2,1.3-0.2,1.9
			c0,0.7,0.1,1.4,0.2,2.1c0.1,0.7,0.3,1.4,0.7,2c0.3,0.6,0.7,1.1,1.2,1.5C78.9,43.6,79.6,43.8,80.3,43.8z"/>
		<path class="st1" d="M89.4,44.9V44l1.6-0.5c0.1,0,0.3-0.1,0.4-0.2s0.1-0.2,0.1-0.4v-8.8c0-0.2-0.1-0.4-0.2-0.5
			c-0.1-0.1-0.3-0.2-0.4-0.3l-1.6-0.7v-0.9l4.5-0.7V34h0.1c0.5-0.7,1-1.3,1.4-1.8s0.9-0.8,1.3-1s0.9-0.3,1.4-0.3
			c0.4,0,0.8,0,1.2,0.1c0.4,0.1,0.8,0.3,1.1,0.6v3.2h-1.5l-0.4-1c-0.1-0.2-0.3-0.4-0.6-0.5c-0.3-0.1-0.6-0.2-0.8-0.2
			c-0.5,0-0.9,0.1-1.3,0.3c-0.4,0.2-0.7,0.5-1,0.8c-0.3,0.3-0.6,0.6-0.9,1v7.6c0,0.3,0.2,0.5,0.5,0.6l2,0.5v0.9H89.4z"/>
		<path class="st1" d="M102.1,44.9V44l1.5-0.5c0.2-0.1,0.3-0.1,0.4-0.2s0.1-0.2,0.1-0.4v-15c0-0.2-0.1-0.3-0.2-0.4
			c-0.1-0.1-0.2-0.2-0.4-0.2l-1.6-0.7v-0.9l4.7-0.2v12.8l5.4-5.2l-1.4-0.7v-0.9h5.5v0.9l-1.6,0.5c-0.2,0.1-0.3,0.1-0.5,0.3
			c-0.2,0.1-0.3,0.2-0.5,0.4l-3.5,3.2l4.6,6.4c0.1,0.1,0.2,0.2,0.4,0.4c0.2,0.1,0.3,0.2,0.5,0.3l1.3,0.5v0.9h-5.6V44l0.8-0.6
			l-3.8-5.2l-1.7,0.7v3.9c0,0.2,0,0.3,0.1,0.4c0.1,0.1,0.2,0.2,0.3,0.2l1.3,0.5v0.9H102.1z"/>
		<path class="st1" d="M9.9,78.4l-0.1-4.8h1.5l0.5,2.6c0,0.1,0.1,0.2,0.2,0.4s0.2,0.2,0.3,0.3c0.3,0.2,0.7,0.4,1.1,0.6
			c0.4,0.2,0.8,0.3,1.2,0.4c0.4,0.1,0.9,0.2,1.3,0.2c1.3,0,2.4-0.3,3.1-0.9c0.8-0.6,1.1-1.4,1.1-2.4c0-0.8-0.2-1.4-0.7-1.9
			s-1-0.9-1.8-1.2c-0.7-0.3-1.4-0.6-2.1-0.8c-0.7-0.2-1.4-0.5-2.1-0.7c-1-0.4-1.8-1-2.4-1.8c-0.6-0.8-0.9-1.7-0.9-2.8
			c0-1,0.3-1.8,0.8-2.6s1.3-1.4,2.2-1.8c0.9-0.4,2-0.7,3.1-0.7c0.7,0,1.4,0,2,0.1c0.6,0.1,1.2,0.2,1.8,0.3c0.6,0.1,1.1,0.3,1.6,0.4
			V66h-1.5l-0.5-2.5c0-0.1-0.1-0.2-0.2-0.3c-0.1-0.1-0.2-0.2-0.3-0.3c-0.2-0.1-0.4-0.3-0.7-0.4c-0.3-0.1-0.6-0.2-0.9-0.3
			c-0.3-0.1-0.7-0.1-1.1-0.1c-1.2,0-2.1,0.3-2.8,0.8s-1,1.1-1,1.9c0,0.7,0.2,1.3,0.5,1.8c0.4,0.6,1,1,2.1,1.4c0.7,0.2,1.3,0.5,2,0.7
			c0.6,0.2,1.4,0.5,2.1,0.8c0.6,0.2,1.1,0.5,1.6,0.9s0.9,0.9,1.3,1.5c0.3,0.6,0.5,1.3,0.5,2.2c0,0.9-0.2,1.8-0.7,2.6s-1.2,1.5-2.3,2
			c-1,0.5-2.4,0.8-4.1,0.8c-0.6,0-1.2-0.1-1.8-0.2s-1.3-0.3-2-0.4C11.2,78.7,10.6,78.5,9.9,78.4z"/>
		<path class="st1" d="M25.3,79.1v-0.9l1.9-0.5c0.2,0,0.3-0.1,0.4-0.2c0.1-0.1,0.1-0.2,0.1-0.4v-8.8c0-0.2-0.1-0.3-0.2-0.4
			c-0.1-0.1-0.2-0.2-0.4-0.2l-1.8-0.6V66l4.9-0.7V77c0,0.2,0,0.3,0.1,0.4c0.1,0.1,0.2,0.2,0.3,0.2l1.9,0.5v0.9H25.3z M28.8,62.8
			c-0.3,0-0.6-0.1-0.9-0.2s-0.5-0.3-0.7-0.6c-0.2-0.2-0.3-0.5-0.3-0.9c0-0.5,0.2-1,0.5-1.2s0.8-0.4,1.3-0.4c0.6,0,1,0.1,1.4,0.4
			c0.4,0.3,0.5,0.7,0.5,1.2c0,0.4-0.1,0.7-0.2,0.9s-0.4,0.5-0.7,0.6C29.5,62.7,29.2,62.8,28.8,62.8z"/>
		<path class="st1" d="M40.2,79.3c-1.1,0-2.1-0.3-2.9-0.9s-1.4-1.4-1.8-2.4c-0.4-1-0.6-2.1-0.6-3.4c0-1.4,0.3-2.7,0.8-3.8
			c0.5-1.2,1.3-2.1,2.2-2.8c1-0.7,2.1-1,3.5-1c0.8,0,1.5,0.1,2,0.4c0.5,0.3,1,0.6,1.3,0.9v-0.6V62c0-0.2,0-0.3-0.1-0.4
			s-0.2-0.2-0.4-0.2l-1.9-0.7v-0.9l5-0.2v16.9c0,0.2,0.1,0.3,0.2,0.4s0.2,0.2,0.4,0.2l1.5,0.6v0.9l-4.3,0.7h-0.1V77h-0.2
			c-0.5,0.7-1,1.3-1.6,1.6c-0.6,0.3-1.1,0.5-1.6,0.6S40.5,79.3,40.2,79.3z M41.6,77.5c0.3,0,0.6,0,1-0.1s0.8-0.2,1.1-0.4
			c0.4-0.2,0.7-0.5,0.9-0.8v-8.7c-0.2-0.2-0.5-0.3-0.9-0.4c-0.4-0.1-0.8-0.2-1.1-0.2c-0.4,0-0.7-0.1-0.9-0.1c-0.9,0-1.7,0.2-2.3,0.7
			s-1.1,1.1-1.4,1.9c-0.3,0.8-0.4,1.6-0.4,2.6c0,1.1,0.1,2,0.4,2.9c0.3,0.9,0.7,1.5,1.3,2C39.8,77.2,40.6,77.5,41.6,77.5z"/>
		<path class="st1" d="M57.8,79.4c-1.2,0-2.3-0.3-3.3-0.8s-1.8-1.3-2.3-2.4c-0.6-1-0.9-2.3-0.9-3.8c0-1.4,0.3-2.6,0.8-3.7
			c0.6-1.1,1.3-2,2.3-2.6c1-0.6,2.1-1,3.4-1c1.2,0,2.2,0.2,3.1,0.7c0.8,0.5,1.5,1.2,1.9,2c0.5,0.8,0.7,1.7,0.7,2.7
			c0,0.1,0,0.3,0,0.4s0,0.3,0,0.5s0,0.3-0.1,0.4h-9.7l0.1-1.3h7c0-0.8-0.1-1.5-0.3-2.2c-0.2-0.6-0.5-1.1-1-1.4
			c-0.5-0.3-1.1-0.5-1.8-0.5c-0.7,0-1.4,0.2-1.8,0.5s-0.9,0.7-1.2,1.3c-0.3,0.5-0.5,1.1-0.6,1.7s-0.2,1.2-0.2,1.8
			c0,1.1,0.2,2,0.5,2.9c0.3,0.9,0.8,1.5,1.5,2c0.7,0.5,1.6,0.8,2.8,0.8c0.6,0,1.3-0.1,1.8-0.3c0.6-0.2,1.1-0.4,1.5-0.7
			s0.8-0.5,1.1-0.7h0.4v1.5c-0.6,0.5-1.5,1-2.5,1.5C60,79.1,59,79.4,57.8,79.4z"/>
		<path class="st1" d="M65.8,79.1v-0.9l1.5-0.5c0.2-0.1,0.3-0.1,0.4-0.2c0.1-0.1,0.1-0.2,0.1-0.4V62c0-0.2-0.1-0.3-0.2-0.4
			s-0.2-0.2-0.4-0.2l-1.6-0.7v-0.9l4.7-0.2v12.8l5.4-5.2l-1.4-0.7v-0.9h5.5v0.9l-1.6,0.5c-0.2,0.1-0.3,0.1-0.5,0.3
			c-0.2,0.1-0.3,0.2-0.5,0.4l-3.5,3.2l4.6,6.4c0.1,0.1,0.2,0.2,0.4,0.4s0.3,0.2,0.5,0.3l1.3,0.5v0.9H75v-0.9l0.8-0.6l-3.8-5.2
			l-1.7,0.7V77c0,0.2,0,0.3,0.1,0.4c0.1,0.1,0.2,0.2,0.3,0.2l1.3,0.5v0.9H65.8z"/>
		<path class="st1" d="M82,79.1v-0.9l1.9-0.5c0.2,0,0.3-0.1,0.4-0.2c0.1-0.1,0.1-0.2,0.1-0.4v-8.8c0-0.2,0-0.3-0.2-0.4
			c-0.1-0.1-0.2-0.2-0.4-0.2L82,66.9V66l4.9-0.7V77c0,0.2,0,0.3,0.1,0.4c0.1,0.1,0.2,0.2,0.3,0.2l1.9,0.5v0.9H82z M85.5,62.8
			c-0.3,0-0.6-0.1-0.9-0.2s-0.5-0.3-0.7-0.6c-0.2-0.2-0.3-0.5-0.3-0.9c0-0.5,0.2-1,0.5-1.2c0.4-0.3,0.8-0.4,1.3-0.4
			c0.6,0,1,0.1,1.4,0.4c0.3,0.3,0.5,0.7,0.5,1.2c0,0.4-0.1,0.7-0.2,0.9c-0.2,0.3-0.4,0.5-0.7,0.6C86.1,62.7,85.8,62.8,85.5,62.8z"/>
		<path class="st1" d="M102.6,75.7h0.4v1.4c-0.6,0.5-1.4,1-2.2,1.5s-1.9,0.7-3.1,0.7c-1.3,0-2.4-0.3-3.3-0.9
			c-0.9-0.6-1.7-1.4-2.2-2.4s-0.8-2.2-0.8-3.6c0-1.1,0.2-2.1,0.6-2.9c0.4-0.9,0.9-1.7,1.6-2.3s1.5-1.2,2.3-1.5
			c0.9-0.4,1.8-0.5,2.7-0.5c0.7,0,1.2,0.1,1.7,0.2s0.9,0.3,1.3,0.4c0.3,0.2,0.6,0.3,0.8,0.4l-0.1,2.6h-0.6c-0.4-0.3-0.9-0.5-1.3-0.8
			c-0.4-0.3-0.9-0.5-1.4-0.7c-0.5-0.2-1.1-0.3-1.8-0.3c-0.3,0-0.7,0.1-1.1,0.2c-0.4,0.2-0.7,0.4-1,0.6c-0.2,0.2-0.4,0.5-0.6,0.8
			s-0.3,0.8-0.5,1.3s-0.2,1.3-0.2,2.1c0,1.7,0.4,3.1,1.1,4c0.8,1,1.9,1.4,3.3,1.4c0.6,0,1.1-0.1,1.6-0.3s1-0.4,1.4-0.7
			C102,76.2,102.3,75.9,102.6,75.7z"/>
		<path class="st1" d="M104.7,79.1v-0.9l1.5-0.5c0.2-0.1,0.3-0.1,0.4-0.2s0.1-0.2,0.1-0.4V62c0-0.2-0.1-0.3-0.2-0.4
			c-0.1-0.1-0.2-0.2-0.4-0.2l-1.6-0.7v-0.9l4.7-0.2v12.8l5.4-5.2l-1.4-0.7v-0.9h5.5v0.9l-1.6,0.5c-0.2,0.1-0.3,0.1-0.5,0.3
			c-0.2,0.1-0.3,0.2-0.5,0.4l-3.5,3.2l4.6,6.4c0.1,0.1,0.2,0.2,0.4,0.4s0.3,0.2,0.5,0.3l1.3,0.5v0.9h-5.6v-0.9l0.8-0.6l-3.8-5.2
			l-1.7,0.7V77c0,0.2,0,0.3,0.1,0.4c0.1,0.1,0.2,0.2,0.3,0.2l1.3,0.5v0.9H104.7z"/>
	</g>
</g>
</svg>
