<?xml version="1.0" encoding="utf-8"?>
<!-- Generator: Adobe Illustrator 26.5.0, SVG Export Plug-In . SVG Version: 6.00 Build 0)  -->
<svg version="1.1" id="Layer_1" xmlns="http://www.w3.org/2000/svg" xmlns:xlink="http://www.w3.org/1999/xlink" x="0px" y="0px"
	 viewBox="0 0 128 128" style="enable-background:new 0 0 128 128;" xml:space="preserve">
<style type="text/css">
	.st0{fill:#CFE862;}
	.st1{fill:#6F9321;}
	.st2{fill:#D6E2F1;}
	.st3{fill:#5ECEB3;}
	.st4{fill:#7D8B96;}
	.st5{fill:#61C178;}
	.st6{fill:#A5EF50;}
	.st7{fill:#B6CDE8;}
	.st8{fill:#50B29F;}
	.st9{fill:#606060;}
	.st10{font-family:'CaskaydiaCoveNF-SemiLight';}
	.st11{font-size:16.7598px;}
</style>
<path class="st0" d="M128,76.7c0,12.5,0,25,0,37.5c-0.3,1.3-1.2,1.7-2.3,1.8c-0.7,0-1.4,0-2.1,0c-39.7,0-79.3,0-119,0
	c-0.7,0-1.4,0-2.1,0c-1.2-0.1-2.1-0.5-2.3-1.8c0-12.5,0-25,0-37.5c0.4-0.6,1.1-0.6,1.7-0.6c1.4,0,2.8,0,4.2,0c1.3,0,1.6-0.4,1.7-1.6
	c0-0.5,0-1.1,0-1.6c0-11.7,0-23.4,0-35.1c0-0.9-0.2-1.8,0.4-2.5c0.1-0.1,0.3-0.1,0.5,0c0.5,0.4,0.5,1,0.5,1.6c0,2.6,0.1,5.1-0.1,7.7
	c0.2,7.1,0,14.1,0.1,21.2c0,2.7,0,5.3,0,8c0,2.2,0.2,2.4,2.4,2.5c7.8,0,15.6,0,23.3,0c1.2,0,2.4,0,3.6,0.1c3.5-0.2,7-0.2,10.4,0
	c0.2,0,0.3,0,0.5,0c5.3,0.7,10.5,0.4,15.8,0.3c4-0.1,8-0.5,12.1-0.4c0.9,0,1.8,0,2.7,0.1c5.8-0.1,11.6-0.1,17.4,0
	c2.7-0.1,5.3-0.1,8,0c3.7-0.2,7.4,0,11.1-0.1c2,0,2.3-0.3,2.3-2.3c0-8.9,0-17.7,0-26.6c0-0.9,0-1.8,0.1-2.7
	c-0.1-2.6-0.1-5.1-0.1-7.7c0-0.5,0-1.1,0.4-1.5c0.1-0.1,0.3-0.1,0.5,0c0.7,0.6,0.5,1.5,0.5,2.2c0,7,0,13.9,0,20.9
	c0,5.2,0,10.3,0,15.5c0,2,0.3,2.3,2.3,2.3c1.2,0,2.5,0,3.7,0C127,76.2,127.6,76.2,128,76.7z"/>
<path class="st1" d="M0,114.2c0.6,0.9,1.6,1.2,2.6,1.2c0.3,0,0.6,0,0.9,0c40.3,0,80.7,0,121,0c1.3,0,2.6-0.1,3.5-1.2
	c0,2.6,0,5.2,0,7.7c-0.6,1.6-0.8,1.8-2.5,1.8c-0.7,0-1.5,0-2.2,0c-39.5,0-79,0-118.4,0c-0.7,0-1.5,0-2.2,0c-1.7-0.1-1.9-0.2-2.5-1.8
	C0,119.4,0,116.8,0,114.2z"/>
<path class="st1" d="M0,36c0.7-0.7,1.5-0.9,2.5-0.8c1.9,0.1,3.9,0.1,5.8,0.1c0,12.9,0,25.9,0,38.8c0,3,0.4,2.7-2.6,2.7
	c-1.9,0-3.7,0-5.6,0C0,63.2,0,49.6,0,36z"/>
<path class="st1" d="M126.7,35.2c0.6,0.1,0.8,0.6,1.3,0.8c0,13.6,0,27.2,0,40.7c-2.2,0-4.5,0-6.7,0.1c-1.2,0-1.5-0.4-1.5-1.6
	c0-11.2,0-22.5,0-33.7c0-2.1,0-4.2,0-6.2C122,35,124.4,35.2,126.7,35.2z"/>
<path class="st2" d="M126.7,35.2c-2.3,0-4.6,0.1-7,0.1c0,0-0.1,0-0.1,0l-0.1,0c-0.4,0.6-1.1,0.6-1.7,0.6c-1.9,0-3.7,0-5.6,0
	c-0.9,0-1.4,0.3-1.7,1.3c-0.6,1.8-2,3.1-3.1,4.7c-0.7,1-1.3,1.9-1.3,3.2c-0.1,8.9,0,17.8-0.1,26.8c0,1.2,0,2.3,0,3.5
	c0,0.6-0.1,1.2-0.6,1.6c-2.7,0.1-5.3,0.1-8,0c-0.7-0.6-0.6-1.4-0.6-2.2c0-6.2,0-12.4,0-18.6c0-3.7-0.1-7.4,0.1-11.1
	c0.1-1-0.5-1.8-1-2.6c-1.2-1.9-2.9-3.6-3.6-5.8c-0.2-0.6-0.8-0.6-1.4-0.6c-2.1,0-4.2,0-6.2,0c-0.6,0-1.3,0.1-1.7-0.5
	c-0.1-0.1-0.1-0.3,0-0.4c3,0,5.9,0,8.9,0c0.8,0,1.3-0.3,1.5-1.1c1.1-3.1,2.2-6.2,3.3-9.3c0.7-1.8,1.1-2.1,3-2.1c1.3,0,2.6,0,3.9,0
	c1.3,0,2.2,0.5,2.6,1.8c1,3,2.2,5.9,3.2,8.9c0.4,1.3,1,1.8,2.5,1.8c4.4-0.1,8.9,0,13.3,0C125.7,35,126.2,34.9,126.7,35.2z"/>
<path class="st3" d="M42.3,44.5c2.3,10.7,4.5,21.5,6.8,32.2c-3.5,0.1-7.1,0.1-10.6,0C36.3,66,34,55.3,31.7,44.5
	c-0.4-0.3-0.7-0.7-0.8-1.2c-0.5-2.3-1-4.6-1.5-6.9c-0.1-0.4,0-0.8,0.2-1.2c0-1.7-0.7-3.3-0.8-4.9c0.1-0.6,0.6-0.8,1.1-0.9
	c2.5-0.6,5-1.1,7.5-1.6c0.5-0.1,1-0.1,1.4,0.2c0.5,2.4,1.1,4.8,1.6,7.2c0.5,0.4,0.8,0.9,0.9,1.5c0.5,2.1,0.9,4.2,1.3,6.3
	C42.7,43.6,42.8,44.1,42.3,44.5z"/>
<path class="st4" d="M29.6,35.2c0.9,2.8,1.3,5.7,2,8.5c0.1,0.3,0.1,0.6,0.2,0.9c-7.7,0-15.4,0-23.1,0c0-3.1,0-6.2-0.1-9.3
	C15.5,35.2,22.5,35.2,29.6,35.2z"/>
<path class="st4" d="M119.5,44.5c-4.6,0-9.1,0-13.7,0c-0.3-0.9,0.1-1.6,0.6-2.3c0.9-1.3,1.8-2.6,2.8-3.8c0.4-0.6,0.9-1.2,0.9-2
	c0-0.9,0.4-1.2,1.3-1.2c2.7,0.1,5.4,0,8.1,0C119.5,38.4,119.5,41.5,119.5,44.5z"/>
<path class="st2" d="M80,69c0,2.6,0,5.2,0,7.8c-3.8,0-7.6,0.1-11.5,0.1c-6,0-12.1,0-18.1,0c-0.4,0-0.8,0.1-1.2-0.1
	c6.1,0,12.2,0,18.3,0c1.7,0,1.8,0,1.7-1.7c0-3.7,0-7.5,0-11.2c0.1-0.1,0.2-0.2,0.4,0c0.7,0.8,0.4,1.7,0.5,2.6c0.1,1.7,0.3,2,2,2
	c2.1,0,4.1,0,6.2,0C79,68.4,79.6,68.4,80,69z"/>
<path class="st2" d="M27.2,23.8c-2.2-0.1-4.2,0.8-6.3,1.1c-0.4,0-0.7,0.1-1.1,0.2c-1.5,0.3-2,0-2.3-1.6C17.4,23,17.3,22.4,17,22
	c-0.4-0.3-0.6-0.7-0.7-1.2c-0.5-2.2-1-4.4-1.3-6.6c0.5-0.4,0.3-0.9,0.2-1.4c-0.3-2-0.1-2.4,1.9-2.9c5.1-1.1,10.2-2.2,15.3-3.2
	c3.1-0.6,6.1-1.5,9.3-1.8c3.8-0.3,7.2,0.8,10.2,3.3c2.9,2.4,4.2,5.8,6,9c0.6,1.1,1.5,2.2,1.5,3.7c0,1.6-0.7,2.8-2.1,3.6
	c-3.1,1.7-3.5,1.6-5.2-1.5c-2-3.7-2-4.3-6.7-3.2c-2.6,0.7-5.3,0.9-7.9,1.9c-0.3,0.3-0.6,0.5-1.1,0.6c-2.7,0.6-5.3,1.2-8,1.7
	C28,23.9,27.6,23.9,27.2,23.8z"/>
<path class="st5" d="M71.7,19.5c5-2.2,10.7,1.4,11,6.9c0,0.1,0.1,0.2,0.1,0.4c-0.2,5.4,0.5,10.9,0.2,16.3c-0.2,3.9-0.1,7.9-0.2,11.8
	c0,1.1-0.5,1.4-1.4,1.4c-2.4,0.1-4.7,0-7.1,0c-2.1,0-4.2,0-6.2,0c-1.3-0.1-1.5-0.2-1.5-1.5c0-1.7,0-3.4,0-5.1c0.3-0.8,1-0.7,1.6-0.7
	c1.9-0.1,3.7,0,5.6,0c1.6,0,1.8-0.3,1.8-1.8c0-6.8,0-13.6,0-20.5c0-2.4-1.3-4.2-3.1-5.7C72.2,20.5,71.5,20.3,71.7,19.5z"/>
<path class="st6" d="M71.7,19.5c0.8,0.7,1.8,1.3,2.5,2.1c1.2,1.4,2,3,2,5c0,7.1,0,14.2,0,21.4c0,1.3-0.4,1.7-1.6,1.6
	c-2.6-0.1-5.2,0-7.9,0c-0.1,0.2-0.1,0.2-0.2,0c0-1.7,0-3.3-0.1-5c-0.5-0.4-0.6-0.9-0.6-1.4c0-2.1,0-4.3,0-6.4c0-0.6,0.1-1.1,0.6-1.5
	c0-2.6,0-5.3,0.1-7.9C66.6,23.6,68.5,20.8,71.7,19.5z"/>
<path class="st4" d="M66.5,35.2c0,3.1,0,6.2,0,9.3c-8.1,0-16.1,0-24.2,0c-0.7-3.1-1.3-6.2-2-9.4C49.1,35.2,57.8,35.2,66.5,35.2z"/>
<path class="st6" d="M66.6,49.5c0.1,0,0.1,0,0.2,0c0,1.7,0,3.3,0,5c0,0.9,0.3,1.3,1.2,1.3c4.5,0,9.1,0,13.6,0c1.2,0,1.2-0.7,1.2-1.5
	c0-8.7,0-17.4,0-26.1c0-0.6,0-1.2,0.1-1.7c0.3,2.1,0.1,4.1,0.2,6.2c0,0.8,0.1,1.6,0.1,2.4c0,0.1,0,0.2,0,0.2c0.5,0.4,0.5,1,0.6,1.6
	c0,2.1,0,4.1,0,6.2c0,0.6-0.1,1.2-0.6,1.6c0,3.4,0,6.9,0,10.3c0,1.1,0.6,0.9,1.2,0.9c2.8,0.1,4.6,2.6,3.8,5.2
	c-0.5,1.6-2,2.8-3.7,2.8c-1.4,0-2.8,0-4.2,0.1c-0.5,0.4-1,0.5-1.6,0.5c-2.4,0-4.9,0-7.3,0c-0.6,0-1.2-0.1-1.6-0.5
	c-0.1,0-0.2,0-0.3,0c-1.3,0-2.7,0-4-0.1c-2.3-0.1-4-1.7-4-3.9c0-2.2,1.7-4,4-4.1c1,0,1.4-0.3,1.3-1.3C66.5,52.8,66.5,51.2,66.6,49.5
	z"/>
<path class="st7" d="M15,14.2c0.3,0.1,0.6,0.3,0.7,0.7c0.4,2.4,1.2,4.7,1.3,7.1c-1.8,0.4-3.6,0.7-5.4,1.1c-0.8,0.2-1,0.6-0.9,1.4
	c0.4,2.4,0.4,2.4-2,3C7.5,27.7,6.2,28,5,28.2c-0.8,0.2-1.3-0.1-1.5-1C2.6,23.1,1.7,19,0.8,14.9c-0.2-0.9,0.1-1.5,1.1-1.7
	c1.6-0.3,3.3-0.6,4.9-1c0.9-0.2,1.3,0.1,1.5,1c0.6,2.3,0.6,2.3,3,1.9C12.6,14.7,13.8,14.5,15,14.2z"/>
<path class="st8" d="M27.2,23.8c0.3-0.4,0.7-0.4,1.1-0.5c2.6-0.6,5.3-1.1,7.9-1.7c0.4-0.1,0.8,0,1.2-0.1c0.4,2.2,0.8,4.3,1.2,6.5
	c-3,0.7-6,1.3-8.9,2c-0.4,0.1-0.7,0.2-1.1,0.3C28,28.2,27.8,25.9,27.2,23.8z"/>
<path class="st4" d="M83,44.5c-0.1-3.1-0.1-6.2,0-9.3c2.9,0,5.9,0,8.8,0c0.7,0,1.2,0.1,1.2,1c0,0.8,0.4,1.4,0.9,2
	c0.9,1.3,1.9,2.6,2.8,3.8c0.5,0.7,0.9,1.5,0.8,2.4C92.7,44.5,87.8,44.5,83,44.5z"/>
<path class="st7" d="M69.5,63.8c3.5,0,7,0,10.5,0c0,1.7,0,3.5,0,5.2c-3,0-6.1,0-9.1,0c-1.1,0-1.5-0.4-1.4-1.5
	C69.6,66.3,69.5,65.1,69.5,63.8z"/>
<text transform="matrix(1 0 0 1 20.4947 91.9345)"><tspan x="0" y="0" class="st9 st10 st11">Proposal</tspan><tspan x="5.3" y="20.1" class="st9 st10 st11">Toolbox</tspan></text>
</svg>
